<?xml version="1.0" standalone="yes"?>
<svg xmlns="http://www.w3.org/2000/svg" width="500" height="500">
<path style="fill:#010101; stroke:none;" d="M0 0L0 500L500 500L500 0L0 0z"/>
<path style="fill:#b2844c; stroke:none;" d="M119 176C119.671 178.657 120.595 180.64 122 183C122.278 180.723 121.755 179.198 121 177C127.693 177 133.481 177.58 140 179C134.12 174.631 125.976 176 119 176z"/>
<path style="fill:#503f2d; stroke:none;" d="M136 176L137 177L136 176z"/>
<path style="fill:#b2844c; stroke:none;" d="M164 176C169.282 177.974 175.184 175.708 180 179C181.786 174.262 167.168 176 164 176z"/>
<path style="fill:#503f2d; stroke:none;" d="M181.333 176.667C181.278 176.722 181.222 177.778 181.667 177.333C181.722 177.278 181.778 176.222 181.333 176.667z"/>
<path style="fill:#a36e4b; stroke:none;" d="M184 176L184 179L186 176L184 176z"/>
<path style="fill:#b2844c; stroke:none;" d="M186 176C198.333 180.609 217.817 177 231 177L231 185C232.103 182.053 231.994 179.136 232 176L186 176z"/>
<path style="fill:#8a6346; stroke:none;" d="M232 176L232 180C232.6 178.268 232.6 177.732 232 176z"/>
<path style="fill:#b2844c; stroke:none;" d="M239 195C257.148 176.705 271.291 177 296 177C278.417 170.429 245.76 175.312 239 195z"/>
<path style="fill:#a36e4b; stroke:none;" d="M296 176L296 180C296.6 178.268 296.6 177.732 296 176z"/>
<path style="fill:#b2844c; stroke:none;" d="M313 207C319.647 198.731 324.497 187.596 329 178L331 178C331 179.797 331.014 179.522 332 181C332.359 175.044 327.516 177.687 325.443 181.043C320.814 188.539 314.751 198.374 313 207M368 176C370.656 176.996 373.166 176.984 376 177C373.344 176.004 370.834 176.016 368 176z"/>
<path style="fill:#62584f; stroke:none;" d="M376 176L377 177L376 176z"/>
<path style="fill:#e99547; stroke:none;" d="M121 177C124.339 189.064 132.94 200.062 139 211C141.303 209.619 143.409 208.708 146 208L146 212L152 211C152.501 214.022 153.537 215.213 156 217C160.831 207.252 147.207 183.484 137.94 178.672C132.927 176.068 126.466 177 121 177z"/>
<path style="fill:#4f2f2a; stroke:none;" d="M138 177L139 178L138 177z"/>
<path style="fill:#a36e4b; stroke:none;" d="M156 191C158.179 185.571 159.256 181.912 164 178C157.143 177.63 156.084 185.718 156 191z"/>
<path style="fill:#e99547; stroke:none;" d="M180 177C175.261 177 169.575 176.164 165.011 177.603C155.913 180.469 153.731 196.965 165.046 198.163C171.248 198.82 178.647 182.022 180 177M185 177C185.001 181.347 183.99 188.034 187.603 191.283C191.091 194.419 198.672 193 203 193C217.146 193 230.96 195.132 231 177L185 177M238 225C240.25 221.703 241.982 220.42 246 220L247 214C247.971 216.365 248.588 218.478 249 221C250.982 220.535 251.406 220.297 253 219C254.242 221.007 254.981 221.801 257 223C255.409 220.101 253.575 217.24 252.76 214C250.659 205.658 258.058 196.539 266 194.494C279.248 191.082 295.685 196.902 296 177C271.975 177 236.665 175.409 236.011 209C235.902 214.615 236.729 219.564 238 225z"/>
<path style="fill:#818101; stroke:none;" d="M327 177L328 178L327 177z"/>
<path style="fill:#a36e4b; stroke:none;" d="M363 190C364.744 185.381 365.273 181.363 368 177C362.834 179.883 363.012 184.609 363 190z"/>
<path style="fill:#e99547; stroke:none;" d="M368.101 178.15C357.925 183.843 367.546 199.068 377.784 192.85C386.694 187.439 377.991 172.616 368.101 178.15z"/>
<path style="fill:#503f2d; stroke:none;" d="M378 177L379 178L378 177z"/>
<path style="fill:#e99547; stroke:none;" d="M329 178C322.571 188.114 314.617 200.557 311.033 211.997C309.575 216.648 313.583 224.706 319 222C320.33 223.753 321.247 224.67 323 226C323.273 223.112 322.63 220.814 322 218C325.112 219.389 329.285 216.252 331.204 217.82C337.457 222.932 337.42 234.07 344 239L342 233C343.625 231.737 344.13 230.9 345 229L347 234C349.587 233.08 350.996 231.908 353 230L355 236C358.864 230.323 354.899 224.444 352.268 219.001C345.568 205.14 337.675 191.841 331 178L329 178z"/>
<path style="fill:#694635; stroke:none;" d="M365 178L366 179L365 178M379 178L380 179L379 178z"/>
<path style="fill:#8a6346; stroke:none;" d="M140 179L141 180L140 179M184 179C184.002 182.796 184 186.325 185 190C185.689 186.454 185.273 182.38 184 179z"/>
<path style="fill:#8d4f45; stroke:none;" d="M326 179L327 180L326 179z"/>
<path style="fill:#4f2f2a; stroke:none;" d="M380 179L381 180L380 179z"/>
<path style="fill:#503f2d; stroke:none;" d="M120 180L121 181L120 180z"/>
<path style="fill:#a36e4b; stroke:none;" d="M141 180L142 181L141 180z"/>
<path style="fill:#462c1b; stroke:none;" d="M142 180L143 181L142 180z"/>
<path style="fill:#694635; stroke:none;" d="M179 180L180 181L179 180M232 180L232 183C232.696 181.446 232.696 181.554 232 180z"/>
<path style="fill:#62584f; stroke:none;" d="M296 180L296 183C296.696 181.446 296.696 181.554 296 180z"/>
<path style="fill:#b2844c; stroke:none;" d="M142 181C142.686 182.436 142.938 182.824 144 184C143.314 182.564 143.062 182.176 142 181z"/>
<path style="fill:#8a6346; stroke:none;" d="M178 181L179 182L178 181z"/>
<path style="fill:#462c1b; stroke:none;" d="M333 181L334 182L333 181z"/>
<path style="fill:#a36e4b; stroke:none;" d="M381.333 181.667C381.278 181.722 381.222 182.778 381.667 182.333C381.722 182.278 381.778 181.222 381.333 181.667z"/>
<path style="fill:#462c1b; stroke:none;" d="M178 182L179 183L178 182z"/>
<path style="fill:#b2844c; stroke:none;" d="M333 182L334 186C334.262 184.117 334.036 183.629 333 182z"/>
<path style="fill:#503f2d; stroke:none;" d="M122 183L123 184L122 183M144 183L145 184L144 183z"/>
<path style="fill:#62584f; stroke:none;" d="M177 183L178 184L177 183z"/>
<path style="fill:#4f2f2a; stroke:none;" d="M334 183L335 184L334 183z"/>
<path style="fill:#2e231d; stroke:none;" d="M362 183L363 184L362 183z"/>
<path style="fill:#b2844c; stroke:none;" d="M381 183L381 188C381.722 185.974 381.722 185.026 381 183z"/>
<path style="fill:#62584f; stroke:none;" d="M382 183L382 188C382.722 185.974 382.722 185.026 382 183z"/>
<path style="fill:#b2844c; stroke:none;" d="M175 184L175 187L177 184L175 184z"/>
<path style="fill:#503f2d; stroke:none;" d="M295.333 184.667C295.278 184.722 295.222 185.778 295.667 185.333C295.722 185.278 295.778 184.222 295.333 184.667z"/>
<path style="fill:#694635; stroke:none;" d="M362 184L362 189C362.722 186.974 362.722 186.026 362 184z"/>
<path style="fill:#503f2d; stroke:none;" d="M123 185L124 186L123 185z"/>
<path style="fill:#b2844c; stroke:none;" d="M145.333 185.667C145.278 185.722 145.222 186.778 145.667 186.333C145.722 186.278 145.778 185.222 145.333 185.667z"/>
<path style="fill:#694635; stroke:none;" d="M176 185L177 186L176 185M231 185L232 186L231 185z"/>
<path style="fill:#503f2d; stroke:none;" d="M335 185L336 186L335 185z"/>
<path style="fill:#8a6346; stroke:none;" d="M124 186L125 187L124 186z"/>
<path style="fill:#a36e4b; stroke:none;" d="M230 186L231 187L230 186z"/>
<path style="fill:#8a6346; stroke:none;" d="M294 186L295 187L294 186z"/>
<path style="fill:#b2844c; stroke:none;" d="M146 187L148 193C148.28 190.413 147.555 189.081 146 187z"/>
<path style="fill:#503f2d; stroke:none;" d="M175 187L176 188L175 187z"/>
<path style="fill:#694635; stroke:none;" d="M230 187L231 188L230 187z"/>
<path style="fill:#503f2d; stroke:none;" d="M294 187L295 188L294 187M336 187L337 188L336 187z"/>
<path style="fill:#62584f; stroke:none;" d="M125 188L126 189L125 188z"/>
<path style="fill:#462c1b; stroke:none;" d="M147 188L148 189L147 188z"/>
<path style="fill:#8a6346; stroke:none;" d="M174 188L175 189L174 188M229 188L230 189L229 188z"/>
<path style="fill:#694635; stroke:none;" d="M293 188L294 189L293 188z"/>
<path style="fill:#8a6346; stroke:none;" d="M381.333 188.667C381.278 188.722 381.222 189.778 381.667 189.333C381.722 189.278 381.778 188.222 381.333 188.667M126 189L127 190L126 189M228 189L229 190L228 189z"/>
<path style="fill:#ffffff; stroke:none;" d="M241 189L242 190L241 189z"/>
<path style="fill:#8a6346; stroke:none;" d="M292 189L293 190L292 189z"/>
<path style="fill:#694635; stroke:none;" d="M337 189L338 190L337 189z"/>
<path style="fill:#503f2d; stroke:none;" d="M126 190L127 191L126 190M148 190L149 191L148 190z"/>
<path style="fill:#62584f; stroke:none;" d="M173 190L174 191L173 190z"/>
<path style="fill:#503f2d; stroke:none;" d="M185 190L186 191L185 190z"/>
<path style="fill:#8a6346; stroke:none;" d="M227 190L228 191L227 190z"/>
<path style="fill:#694635; stroke:none;" d="M291 190L292 191L291 190z"/>
<path style="fill:#462c1b; stroke:none;" d="M363 190L364 191L363 190z"/>
<path style="fill:#503f2d; stroke:none;" d="M381 190L382 191L381 190z"/>
<path style="fill:#8a6346; stroke:none;" d="M127 191L128 192L127 191z"/>
<path style="fill:#503f2d; stroke:none;" d="M156 191L157 192L156 191z"/>
<path style="fill:#a36e4b; stroke:none;" d="M172 191L173 192L172 191z"/>
<path style="fill:#503f2d; stroke:none;" d="M186 191L187 192L186 191z"/>
<path style="fill:#694635; stroke:none;" d="M226 191L227 192L226 191z"/>
<path style="fill:#a36e4b; stroke:none;" d="M289 191L290 192L289 191z"/>
<path style="fill:#503f2d; stroke:none;" d="M290 191L291 192L290 191z"/>
<path style="fill:#694635; stroke:none;" d="M338 191L339 192L338 191M364 191L365 192L364 191z"/>
<path style="fill:#8a6346; stroke:none;" d="M380 191L381 192L380 191z"/>
<path style="fill:#62584f; stroke:none;" d="M128.333 192.667C128.278 192.722 128.222 193.778 128.667 193.333C128.722 193.278 128.778 192.222 128.333 192.667z"/>
<path style="fill:#a36e4b; stroke:none;" d="M149.333 192.667C149.278 192.722 149.222 193.778 149.667 193.333C149.722 193.278 149.778 192.222 149.333 192.667z"/>
<path style="fill:#8a6346; stroke:none;" d="M157 192L158 193L157 192z"/>
<path style="fill:#503f2d; stroke:none;" d="M172 192L173 193L172 192z"/>
<path style="fill:#2e231d; stroke:none;" d="M224.667 192.333C224.222 192.778 225.278 192.722 225.333 192.667C225.778 192.222 224.722 192.278 224.667 192.333z"/>
<path style="fill:#ffffff; stroke:none;" d="M239 192L240 193L239 192z"/>
<path style="fill:#694635; stroke:none;" d="M287.667 192.333C287.222 192.778 288.278 192.722 288.333 192.667C288.778 192.222 287.722 192.278 287.667 192.333z"/>
<path style="fill:#b2844c; stroke:none;" d="M365.667 192.333C365.222 192.778 366.278 192.722 366.333 192.667C366.778 192.222 365.722 192.278 365.667 192.333z"/>
<path style="fill:#8a6346; stroke:none;" d="M379 192L380 193L379 192z"/>
<path style="fill:#a36e4b; stroke:none;" d="M129 193C130.164 197.44 132.615 201.107 135 205C135.337 200.479 131.926 196.245 129 193z"/>
<path style="fill:#62584f; stroke:none;" d="M171 193C170.014 194.479 170 194.203 170 196C171.289 194.557 171.401 194.766 171 193z"/>
<path style="fill:#8a6346; stroke:none;" d="M189.667 193.333C189.222 193.778 190.278 193.722 190.333 193.667C190.778 193.222 189.722 193.278 189.667 193.333z"/>
<path style="fill:#b2844c; stroke:none;" d="M191 193C199.784 196.283 212.645 194 222 194C213.216 190.717 200.355 193 191 193z"/>
<path style="fill:#694635; stroke:none;" d="M222 193L223 194L222 193z"/>
<path style="fill:#a36e4b; stroke:none;" d="M283 193L286 194L283 193z"/>
<path style="fill:#62584f; stroke:none;" d="M339 193L340 194L339 193z"/>
<path style="fill:#694635; stroke:none;" d="M366 193L367 194L366 193z"/>
<path style="fill:#8a6346; stroke:none;" d="M378 193L379 194L378 193z"/>
<path style="fill:#b2844c; stroke:none;" d="M150 194L152 200C152.28 197.413 151.555 196.081 150 194z"/>
<path style="fill:#694635; stroke:none;" d="M158 194L159 195L158 194z"/>
<path style="fill:#2e231d; stroke:none;" d="M192 194C199.763 196.901 210.744 195 219 195C211.237 192.099 200.256 194 192 194z"/>
<path style="fill:#62584f; stroke:none;" d="M238 194L239 195L238 194z"/>
<path style="fill:#8a6346; stroke:none;" d="M264.667 194.333C264.222 194.778 265.278 194.722 265.333 194.667C265.778 194.222 264.722 194.278 264.667 194.333z"/>
<path style="fill:#4f2f2a; stroke:none;" d="M266 194C270.897 195.83 276.815 195 282 195C277.103 193.17 271.185 194 266 194z"/>
<path style="fill:#8a6346; stroke:none;" d="M368.667 194.333C368.222 194.778 369.278 194.722 369.333 194.667C369.778 194.222 368.722 194.278 368.667 194.333z"/>
<path style="fill:#b2844c; stroke:none;" d="M370 194C372.064 194.791 373.776 194.931 376 195C373.936 194.209 372.224 194.069 370 194z"/>
<path style="fill:#8a6346; stroke:none;" d="M376 194L377 195L376 194z"/>
<path style="fill:#462c1b; stroke:none;" d="M377 194L378 195L377 194z"/>
<path style="fill:#2e231d; stroke:none;" d="M151 195L152 196L151 195z"/>
<path style="fill:#694635; stroke:none;" d="M159 195L160 196L159 195z"/>
<path style="fill:#a36e4b; stroke:none;" d="M238 195C234.862 202.279 235 209.21 235 217C236.889 211.946 238.902 200.22 238 195z"/>
<path style="fill:#62584f; stroke:none;" d="M262.667 195.333C262.222 195.778 263.278 195.722 263.333 195.667C263.778 195.222 262.722 195.278 262.667 195.333z"/>
<path style="fill:#b2844c; stroke:none;" d="M340.333 195.667C340.278 195.722 340.222 196.778 340.667 196.333C340.722 196.278 340.778 195.222 340.333 195.667z"/>
<path style="fill:#694635; stroke:none;" d="M370 195C371.764 195.703 373.083 195.884 375 196C373.236 195.297 371.917 195.116 370 195z"/>
<path style="fill:#a36e4b; stroke:none;" d="M160.667 196.333C160.222 196.778 161.278 196.722 161.333 196.667C161.778 196.222 160.722 196.278 160.667 196.333M169 196L170 197L169 196z"/>
<path style="fill:#694635; stroke:none;" d="M261 196L262 197L261 196z"/>
<path style="fill:#ffffff; stroke:none;" d="M317 196L318 197L317 196z"/>
<path style="fill:#462c1b; stroke:none;" d="M130 197L131 198L130 197z"/>
<path style="fill:#4f2f2a; stroke:none;" d="M152 197L153 198L152 197z"/>
<path style="fill:#462c1b; stroke:none;" d="M161 197L162 198L161 197z"/>
<path style="fill:#694635; stroke:none;" d="M169 197L170 198L169 197z"/>
<path style="fill:#8a6346; stroke:none;" d="M259 197L260 198L259 197z"/>
<path style="fill:#b2844c; stroke:none;" d="M341.333 197.667C341.278 197.722 341.222 198.778 341.667 198.333C341.722 198.278 341.778 197.222 341.333 197.667z"/>
<path style="fill:#8a6346; stroke:none;" d="M163.667 198.333C163.222 198.778 164.278 198.722 164.333 198.667C164.778 198.222 163.722 198.278 163.667 198.333z"/>
<path style="fill:#694635; stroke:none;" d="M168 198L169 199L168 198M258 198L259 199L258 198z"/>
<path style="fill:#ffffff; stroke:none;" d="M316 198L317 199L316 198z"/>
<path style="fill:#503f2d; stroke:none;" d="M153 199L154 200L153 199z"/>
<path style="fill:#462c1b; stroke:none;" d="M165 199L168 200L165 199z"/>
<path style="fill:#8a6346; stroke:none;" d="M257 199L258 200L257 199M342 199L343 200L342 199z"/>
<path style="fill:#503f2d; stroke:none;" d="M132 200L133 201L132 200z"/>
<path style="fill:#a36e4b; stroke:none;" d="M153 200C153.686 201.436 153.938 201.824 155 203C154.314 201.564 154.062 201.176 153 200z"/>
<path style="fill:#8a6346; stroke:none;" d="M256 200L257 201L256 200z"/>
<path style="fill:#503f2d; stroke:none;" d="M370 200C371.506 200.683 372.315 200.826 374 201C372.494 200.317 371.685 200.174 370 200z"/>
<path style="fill:#b2844c; stroke:none;" d="M185 213C191.12 198.598 207.23 203 221 203C209.78 198.807 185.126 198.183 185 213z"/>
<path style="fill:#694635; stroke:none;" d="M192 201C195.236 202.21 198.564 201.998 202 202C198.764 200.79 195.436 201.002 192 201z"/>
<path style="fill:#8a6346; stroke:none;" d="M202 201C206.628 202.729 212.101 202 217 202C212.372 200.271 206.899 201 202 201z"/>
<path style="fill:#503f2d; stroke:none;" d="M217 201C218.764 201.703 220.083 201.884 222 202C220.236 201.297 218.917 201.116 217 201z"/>
<path style="fill:#a36e4b; stroke:none;" d="M255 201L256 202L255 201z"/>
<path style="fill:#694635; stroke:none;" d="M269 201C271.064 201.791 272.776 201.931 275 202C272.936 201.209 271.224 201.069 269 201z"/>
<path style="fill:#62584f; stroke:none;" d="M275 201C279.356 202.628 284.389 202 289 202C284.644 200.372 279.611 201 275 201z"/>
<path style="fill:#694635; stroke:none;" d="M289 201C290.764 201.703 292.083 201.884 294 202C292.236 201.297 290.917 201.116 289 201z"/>
<path style="fill:#462c1b; stroke:none;" d="M294.667 201.333C294.222 201.778 295.278 201.722 295.333 201.667C295.778 201.222 294.722 201.278 294.667 201.333z"/>
<path style="fill:#b2844c; stroke:none;" d="M343 201L344 205C344.262 203.117 344.036 202.629 343 201z"/>
<path style="fill:#a36e4b; stroke:none;" d="M363 232C366.835 221.737 358.295 202.848 375 202C358.922 196.053 363 223.339 363 232z"/>
<path style="fill:#8a6346; stroke:none;" d="M375.667 201.333C375.222 201.778 376.278 201.722 376.333 201.667C376.778 201.222 375.722 201.278 375.667 201.333z"/>
<path style="fill:#503f2d; stroke:none;" d="M377 201L378 202L377 201z"/>
<path style="fill:#4f2f2a; stroke:none;" d="M133 202L134 203L133 202z"/>
<path style="fill:#a36e4b; stroke:none;" d="M221 202C222.458 203.081 223.248 203.436 225 204C223.457 202.733 222.952 202.511 221 202z"/>
<path style="fill:#503f2d; stroke:none;" d="M255 202L256 203L255 202z"/>
<path style="fill:#462c1b; stroke:none;" d="M266 202L267 203L266 202z"/>
<path style="fill:#b2844c; stroke:none;" d="M263 207C272.885 201.364 283.853 203 295 203C295 211.96 293.282 222.285 295 231C296.884 225.958 298.386 208.107 294.85 203.717C290.225 197.975 266.326 201.293 263 207z"/>
<path style="fill:#8a6346; stroke:none;" d="M295 202L296 206C296.751 203.954 296.656 203.404 295 202z"/>
<path style="fill:#462c1b; stroke:none;" d="M344 202L345 203L344 202z"/>
<path style="fill:#e99547; stroke:none;" d="M365 224C366.103 221.053 365.994 218.136 366 215L370 215C370 216.797 370.014 216.521 371 218L376 216C376.174 219.737 376.481 223.275 376 227L381 228C381 221.828 382.927 211.667 379.715 206.189C377.12 201.762 369.197 200.424 366.285 205.216C363.387 209.984 365 218.61 365 224z"/>
<path style="fill:#b2844c; stroke:none;" d="M375 202L380 205C378.474 202.859 377.598 202.497 375 202M155.333 203.667C155.278 203.722 155.222 204.778 155.667 204.333C155.722 204.278 155.778 203.222 155.333 203.667z"/>
<path style="fill:#e99547; stroke:none;" d="M190.157 203.845C184.087 206.559 185.319 215.976 191.042 218.283C197.71 220.97 217.428 220.864 223.784 217.397C228.711 214.711 227.579 206.056 222.762 203.845C216.613 201.022 196.328 201.084 190.157 203.845z"/>
<path style="fill:#503f2d; stroke:none;" d="M225 203C225.545 204.635 225.365 204.455 227 205C226.455 203.365 226.635 203.545 225 203z"/>
<path style="fill:#694635; stroke:none;" d="M254.333 203.667C254.278 203.722 254.222 204.778 254.667 204.333C254.722 204.278 254.778 203.222 254.333 203.667z"/>
<path style="fill:#e99547; stroke:none;" d="M282 218C286.105 217.17 289.872 217.394 294 218C295.334 213.096 295 208.056 295 203C287.122 203 275.621 200.864 268.211 203.658C262.845 205.681 261.716 212.73 266.298 216.283C271.234 220.111 277.212 215.463 282 218z"/>
<path style="fill:#4f2f2a; stroke:none;" d="M156 204L157 205L156 204z"/>
<path style="fill:#e46c56; stroke:none;" d="M225 204C226.057 207.384 226.85 210.446 227 214C228.454 210.071 227.834 207.037 225 204z"/>
<path style="fill:#4f2f2a; stroke:none;" d="M345 204L346 205L345 204z"/>
<path style="fill:#503f2d; stroke:none;" d="M380 204L381 205L380 204z"/>
<path style="fill:#694635; stroke:none;" d="M135 205L136 206L135 205z"/>
<path style="fill:#462c1b; stroke:none;" d="M227 205L228 206L227 205z"/>
<path style="fill:#8a6346; stroke:none;" d="M253.333 205.667C253.278 205.722 253.222 206.778 253.667 206.333C253.722 206.278 253.778 205.222 253.333 205.667z"/>
<path style="fill:#a36e4b; stroke:none;" d="M380.333 205.667C380.278 205.722 380.222 206.778 380.667 206.333C380.722 206.278 380.778 205.222 380.333 205.667z"/>
<path style="fill:#8a6346; stroke:none;" d="M157.333 206.667C157.278 206.722 157.222 207.778 157.667 207.333C157.722 207.278 157.778 206.222 157.333 206.667z"/>
<path style="fill:#b2844c; stroke:none;" d="M252 206L252 214C253.058 211.161 253.058 208.839 252 206z"/>
<path style="fill:#62584f; stroke:none;" d="M296 206L296 230C298.266 223.936 298.266 212.063 296 206M312 206L313 207L312 206z"/>
<path style="fill:#503f2d; stroke:none;" d="M346 206L347 207L346 206z"/>
<path style="fill:#694635; stroke:none;" d="M381.333 206.667C381.278 206.722 381.222 207.778 381.667 207.333C381.722 207.278 381.778 206.222 381.333 206.667z"/>
<path style="fill:#4f2f2a; stroke:none;" d="M136 207L137 208L136 207z"/>
<path style="fill:#a36e4b; stroke:none;" d="M184 207C184.09 212.499 184.932 216.249 190 219C187.417 215.047 185.819 211.285 184 207z"/>
<path style="fill:#694635; stroke:none;" d="M228 207L228 213C228.845 210.696 228.845 209.304 228 207z"/>
<path style="fill:#462c1b; stroke:none;" d="M253 207L253 213C253.845 210.696 253.845 209.304 253 207z"/>
<path style="fill:#a36e4b; stroke:none;" d="M262 207C262.09 212.499 262.932 216.249 268 219C265.417 215.047 263.819 211.285 262 207M312 207C309.112 212.49 305.813 218.06 304 224C307.865 220.235 312.557 212.534 312 207z"/>
<path style="fill:#b2844c; stroke:none;" d="M346 207L347 211C347.262 209.117 347.036 208.629 346 207M364 207L364 227C365.999 221.65 365.999 212.35 364 207z"/>
<path style="fill:#8a6346; stroke:none;" d="M137 208L138 209L137 208z"/>
<path style="fill:#e46c56; stroke:none;" d="M121 245C139.34 245 158.467 230.76 152 211L146 212L146 208C135.52 209.959 123.505 235.147 121 245z"/>
<path style="fill:#694635; stroke:none;" d="M158 208L159 213C159.632 210.71 159.349 209.96 158 208z"/>
<path style="fill:#503f2d; stroke:none;" d="M234 208L234 213C234.722 210.974 234.722 210.026 234 208M347 208L348 209L347 208z"/>
<path style="fill:#8a6346; stroke:none;" d="M381 208L381 239C383.718 231.728 383.718 215.272 381 208z"/>
<path style="fill:#a36e4b; stroke:none;" d="M138 209C135.935 214.171 132.698 218.352 132 224C135.081 220.104 139.048 214.086 138 209z"/>
<path style="fill:#b2844c; stroke:none;" d="M158 209L158 213C158.6 211.268 158.6 210.732 158 209z"/>
<path style="fill:#503f2d; stroke:none;" d="M348 210L349 211L348 210M137 211L138 212L137 211z"/>
<path style="fill:#4f2f2a; stroke:none;" d="M309 212L310 213L309 212z"/>
<path style="fill:#503f2d; stroke:none;" d="M349 212L350 213L349 212z"/>
<path style="fill:#8d4f45; stroke:none;" d="M158 213L159 214L158 213M253 213L253 216C253.696 214.446 253.696 214.554 253 213z"/>
<path style="fill:#462c1b; stroke:none;" d="M184 214L185 215L184 214z"/>
<path style="fill:#8d4f45; stroke:none;" d="M227 214L228 215L227 214z"/>
<path style="fill:#e46c56; stroke:none;" d="M247 214C246.406 216.085 246.123 217.834 246 220C234.024 220.621 241.609 232.866 247.087 237.661C258.686 247.815 284.342 248.728 293.129 233.989C295.781 229.541 294.971 222.061 295 217C290.593 217.322 286.296 216.85 282 218C280.637 216.517 280.027 216.363 278 216C280.371 234.543 261.043 228.09 253 219L249 221C248.727 218.335 248.307 216.335 247 214z"/>
<path style="fill:#4f2f2a; stroke:none;" d="M262 214L263 215L262 214z"/>
<path style="fill:#62584f; stroke:none;" d="M308 214L309 215L308 214z"/>
<path style="fill:#a36e4b; stroke:none;" d="M350.333 214.667C350.278 214.722 350.222 215.778 350.667 215.333C350.722 215.278 350.778 214.222 350.333 214.667z"/>
<path style="fill:#694635; stroke:none;" d="M157 215L158 216L157 215z"/>
<path style="fill:#e46c56; stroke:none;" d="M309 215C305.038 224.791 296.773 234.589 295 245C308.054 245 314.873 244.817 320.861 232C323.008 227.404 328.613 221.085 322 218L323 226L319 222C317.805 222.598 318.023 222.466 317 224L309 215z"/>
<path style="fill:#a36e4b; stroke:none;" d="M329.667 215.333C329.222 215.778 330.278 215.722 330.333 215.667C330.778 215.222 329.722 215.278 329.667 215.333z"/>
<path style="fill:#e46c56; stroke:none;" d="M366 215C365.952 223.099 364 230.837 364 239C361.361 236.315 359.629 233.388 358 230C357.097 231.961 356.561 233.908 356 236L353 230L347 234C346.575 231.928 346.162 230.748 345 229C344.03 230.6 343.28 231.663 342 233C345.52 244.721 368.651 251.918 378.479 242.397C382.34 238.657 382.857 226.97 376 227C376.748 223.207 376.325 219.82 376 216C374.033 216.52 372.803 217.033 371 218L370 215L366 215z"/>
<path style="fill:#503f2d; stroke:none;" d="M156.333 216.667C156.278 216.722 156.222 217.778 156.667 217.333C156.722 217.278 156.778 216.222 156.333 216.667M226 216L227 217L226 216z"/>
<path style="fill:#b2844c; stroke:none;" d="M253.333 216.667C253.278 216.722 253.222 217.778 253.667 217.333C253.722 217.278 253.778 216.222 253.333 216.667z"/>
<path style="fill:#694635; stroke:none;" d="M328.333 216.667C328.278 216.722 328.222 217.778 328.667 217.333C328.722 217.278 328.778 216.222 328.333 216.667M330 216L331 217L330 216z"/>
<path style="fill:#8a6346; stroke:none;" d="M331 216L331 219C331.696 217.446 331.696 217.554 331 216z"/>
<path style="fill:#a36e4b; stroke:none;" d="M351.333 216.667C351.278 216.722 351.222 217.778 351.667 217.333C351.722 217.278 351.778 216.222 351.333 216.667z"/>
<path style="fill:#694635; stroke:none;" d="M225 217L226 218L225 217z"/>
<path style="fill:#8d4f45; stroke:none;" d="M235.333 217.667C235.278 217.722 235.222 218.778 235.667 218.333C235.722 218.278 235.778 217.222 235.333 217.667z"/>
<path style="fill:#8a6346; stroke:none;" d="M254.333 217.667C254.278 217.722 254.222 218.778 254.667 218.333C254.722 218.278 254.778 217.222 254.333 217.667M155 218L156 219L155 218z"/>
<path style="fill:#a36e4b; stroke:none;" d="M220 218C221.506 218.683 222.315 218.826 224 219C222.494 218.317 221.685 218.174 220 218z"/>
<path style="fill:#4f2f2a; stroke:none;" d="M224 218L225 219L224 218z"/>
<path style="fill:#b2844c; stroke:none;" d="M268 218C271.236 219.21 274.564 218.998 278 219C274.764 217.79 271.436 218.002 268 218z"/>
<path style="fill:#a36e4b; stroke:none;" d="M352.333 218.667C352.278 218.722 352.222 219.778 352.667 219.333C352.722 219.278 352.778 218.222 352.333 218.667z"/>
<path style="fill:#8d4f45; stroke:none;" d="M190 219C198.784 222.283 211.645 220 221 220C212.216 216.717 199.355 219 190 219z"/>
<path style="fill:#462c1b; stroke:none;" d="M221.667 219.333C221.222 219.778 222.278 219.722 222.333 219.667C222.778 219.222 221.722 219.278 221.667 219.333z"/>
<path style="fill:#4f2f2a; stroke:none;" d="M235.333 219.667C235.278 219.722 235.222 220.778 235.667 220.333C235.722 220.278 235.778 219.222 235.333 219.667z"/>
<path style="fill:#8a6346; stroke:none;" d="M236 219C236.36 222.106 237.187 224.985 238 228C238.784 224.658 237.723 221.91 236 219M255.333 219.667C255.278 219.722 255.222 220.778 255.667 220.333C255.722 220.278 255.778 219.222 255.333 219.667z"/>
<path style="fill:#503f2d; stroke:none;" d="M268 219C271.236 220.21 274.564 219.998 278 220C274.764 218.79 271.436 219.002 268 219z"/>
<path style="fill:#a36e4b; stroke:none;" d="M278 219C277.29 225.636 272.042 227.288 266 228C272.248 230.2 280.71 226.421 278 219z"/>
<path style="fill:#694635; stroke:none;" d="M327 219L328 220L327 219M332.333 219.667C332.278 219.722 332.222 220.778 332.667 220.333C332.722 220.278 332.778 219.222 332.333 219.667M154 220L155 221L154 220M326.333 220.667C326.278 220.722 326.222 221.778 326.667 221.333C326.722 221.278 326.778 220.222 326.333 220.667z"/>
<path style="fill:#a36e4b; stroke:none;" d="M353.333 220.667C353.278 220.722 353.222 221.778 353.667 221.333C353.722 221.278 353.778 220.222 353.333 220.667z"/>
<path style="fill:#8d4f45; stroke:none;" d="M153 221L154 222L153 221M166.667 221.333C166.222 221.778 167.278 221.722 167.333 221.667C167.778 221.222 166.722 221.278 166.667 221.333M256 221L257 222L256 221z"/>
<path style="fill:#8a6346; stroke:none;" d="M333 221C333.628 224.183 334.772 227.001 336 230C336.734 226.443 335.177 223.784 333 221M131 222C127.718 228.638 123.216 234.922 121 242C125.321 237.604 132.324 228.433 131 222z"/>
<path style="fill:#2e231d; stroke:none;" d="M153.333 222.667C153.278 222.722 153.222 223.778 153.667 223.333C153.722 223.278 153.778 222.222 153.333 222.667z"/>
<path style="fill:#a36e4b; stroke:none;" d="M157 231C161.315 227.211 163.88 222.998 170 225C165.227 218.573 158.926 225.834 157 231z"/>
<path style="fill:#694635; stroke:none;" d="M257 222L258 223L257 222M325.333 222.667C325.278 222.722 325.222 223.778 325.667 223.333C325.722 223.278 325.778 222.222 325.333 222.667z"/>
<path style="fill:#a36e4b; stroke:none;" d="M354 222C355.269 226.178 357.298 229.988 359 234C359.439 229.64 356.644 225.343 354 222z"/>
<path style="fill:#ffffff; stroke:none;" d="M130 223L131 224L130 223z"/>
<path style="fill:#8a6346; stroke:none;" d="M152 223L153 224L152 223z"/>
<path style="fill:#e46c56; stroke:none;" d="M179 244C178.402 240.501 176.793 238.022 175.023 234.973C173.071 231.611 171.524 226.11 167.825 224.24C159.27 219.917 152.12 240.384 165.2 243.625C169.503 244.692 174.589 244 179 244z"/>
<path style="fill:#503f2d; stroke:none;" d="M236 223L237 224L236 223z"/>
<path style="fill:#694635; stroke:none;" d="M258 223L259 224L258 223z"/>
<path style="fill:#2e231d; stroke:none;" d="M355 223L356 224L355 223z"/>
<path style="fill:#4f2f2a; stroke:none;" d="M152 224L153 225L152 224z"/>
<path style="fill:#b2844c; stroke:none;" d="M259 224C260.199 226.019 260.993 226.758 263 228C261.801 226.116 260.861 225.269 259 224z"/>
<path style="fill:#694635; stroke:none;" d="M277 224L278 225L277 224z"/>
<path style="fill:#8a6346; stroke:none;" d="M303.333 224.667C303.278 224.722 303.222 225.778 303.667 225.333C303.722 225.278 303.778 224.222 303.333 224.667z"/>
<path style="fill:#8d4f45; stroke:none;" d="M151 225L152 226L151 225M170.333 225.667C170.278 225.722 170.222 226.778 170.667 226.333C170.722 226.278 170.778 225.222 170.333 225.667z"/>
<path style="fill:#694635; stroke:none;" d="M237 225L238 226L237 225M261 225L262 226L261 225M324 225L325 226L324 225z"/>
<path style="fill:#462c1b; stroke:none;" d="M356 225L357 226L356 225M263.667 226.333C263.222 226.778 264.278 226.722 264.333 226.667C264.778 226.222 263.722 226.278 263.667 226.333z"/>
<path style="fill:#4f2f2a; stroke:none;" d="M302 226L303 227L302 226z"/>
<path style="fill:#ababab; stroke:none;" d="M128 227L129 228L128 227z"/>
<path style="fill:#694635; stroke:none;" d="M150 227C149.014 228.478 149 228.203 149 230C150.289 228.557 150.401 228.766 150 227M171 227L172 228L171 227z"/>
<path style="fill:#a36e4b; stroke:none;" d="M185 244C186.419 240.205 185.375 235.673 187.845 232.238C193.314 224.632 210.767 228 219 228C204.581 222.611 181.534 224.899 185 244z"/>
<path style="fill:#8a6346; stroke:none;" d="M219 227L222 228L219 227M263 227C265.656 227.996 268.166 227.984 271 228C268.345 227.004 265.834 227.016 263 227z"/>
<path style="fill:#a36e4b; stroke:none;" d="M302.333 227.667C302.278 227.722 302.222 228.778 302.667 228.333C302.722 228.278 302.778 227.222 302.333 227.667z"/>
<path style="fill:#694635; stroke:none;" d="M323 227L324 228L323 227z"/>
<path style="fill:#462c1b; stroke:none;" d="M357 227L358 228L357 227z"/>
<path style="fill:#e46c56; stroke:none;" d="M186 245L232 245C231.762 227.766 218.928 228 205 228C199.907 228 192.516 226.712 188.521 230.648C184.96 234.157 186 240.459 186 245z"/>
<path style="fill:#a36e4b; stroke:none;" d="M222 228C223.543 229.267 224.048 229.489 226 230C224.542 228.919 223.752 228.564 222 228M239 228C240.186 230.132 241.176 231.383 243 233C241.938 230.597 241.167 229.465 239 228z"/>
<path style="fill:#694635; stroke:none;" d="M322.333 228.667C322.278 228.722 322.222 229.778 322.667 229.333C322.722 229.278 322.778 228.222 322.333 228.667z"/>
<path style="fill:#b2844c; stroke:none;" d="M337 228L338 232C338.397 230.034 338.175 229.666 337 228z"/>
<path style="fill:#8a6346; stroke:none;" d="M172.333 229.667C172.278 229.722 172.222 230.778 172.667 230.333C172.722 230.278 172.778 229.222 172.333 229.667z"/>
<path style="fill:#503f2d; stroke:none;" d="M239 229L240 230L239 229z"/>
<path style="fill:#a36e4b; stroke:none;" d="M301.333 229.667C301.278 229.722 301.222 230.778 301.667 230.333C301.722 230.278 301.778 229.222 301.333 229.667z"/>
<path style="fill:#4f2f2a; stroke:none;" d="M358 229L359 230L358 229z"/>
<path style="fill:#8d4f45; stroke:none;" d="M148 230L149 231L148 230z"/>
<path style="fill:#462c1b; stroke:none;" d="M173 230L174 231L173 230z"/>
<path style="fill:#4f2f2a; stroke:none;" d="M227 230L228 231L227 230z"/>
<path style="fill:#694635; stroke:none;" d="M321.333 230.667C321.278 230.722 321.222 231.778 321.667 231.333C321.722 231.278 321.778 230.222 321.333 230.667M326 230C328.56 231.477 330.391 232.487 332 235C333.083 230.812 329.471 230.264 326 230z"/>
<path style="fill:#4f2f2a; stroke:none;" d="M148 231L149 232L148 231z"/>
<path style="fill:#8a6346; stroke:none;" d="M156 231C156.057 234.705 156.463 237.614 158 241C158.411 237.639 157.311 234.115 156 231z"/>
<path style="fill:#a36e4b; stroke:none;" d="M173.333 231.667C173.278 231.722 173.222 232.778 173.667 232.333C173.722 232.278 173.778 231.222 173.333 231.667z"/>
<path style="fill:#503f2d; stroke:none;" d="M228 231L229 232L228 231M295 231L296 232L295 231z"/>
<path style="fill:#a36e4b; stroke:none;" d="M300.333 231.667C300.278 231.722 300.222 232.778 300.667 232.333C300.722 232.278 300.778 231.222 300.333 231.667z"/>
<path style="fill:#503f2d; stroke:none;" d="M325 231C325 234.363 324.284 237.204 328 238L325 231z"/>
<path style="fill:#8d4f45; stroke:none;" d="M326 233L330 232C327.953 231.249 327.404 231.344 326 233z"/>
<path style="fill:#462c1b; stroke:none;" d="M337 231L338 232L337 231z"/>
<path style="fill:#4f2f2a; stroke:none;" d="M359 231L360 232L359 231z"/>
<path style="fill:#ffffff; stroke:none;" d="M125 232L126 233L125 232z"/>
<path style="fill:#4f2f2a; stroke:none;" d="M147.333 232.667C147.278 232.722 147.222 233.778 147.667 233.333C147.722 233.278 147.778 232.222 147.333 232.667M174 232L175 233L174 232z"/>
<path style="fill:#503f2d; stroke:none;" d="M229 232L230 233L229 232z"/>
<path style="fill:#462c1b; stroke:none;" d="M241 232L242 233L241 232z"/>
<path style="fill:#8d4f45; stroke:none;" d="M294 232L295 233L294 232z"/>
<path style="fill:#694635; stroke:none;" d="M320.333 232.667C320.278 232.722 320.222 233.778 320.667 233.333C320.722 233.278 320.778 232.222 320.333 232.667z"/>
<path style="fill:#e46c56; stroke:none;" d="M326 237C329.259 236.088 330.764 235.183 332 232C328.228 232.406 326.797 233.224 326 237z"/>
<path style="fill:#4f2f2a; stroke:none;" d="M338.333 232.667C338.278 232.722 338.222 233.778 338.667 233.333C338.722 233.278 338.778 232.222 338.333 232.667z"/>
<path style="fill:#694635; stroke:none;" d="M363 232L362 239C364.142 236.842 364.026 234.791 363 232z"/>
<path style="fill:#8d4f45; stroke:none;" d="M146.333 233.667C146.278 233.722 146.222 234.778 146.667 234.333C146.722 234.278 146.778 233.222 146.333 233.667M174 233C174.686 234.436 174.938 234.824 176 236C175.314 234.564 175.062 234.176 174 233z"/>
<path style="fill:#694635; stroke:none;" d="M242 233L243 234L242 233z"/>
<path style="fill:#8d4f45; stroke:none;" d="M299.333 233.667C299.278 233.722 299.222 234.778 299.667 234.333C299.722 234.278 299.778 233.222 299.333 233.667z"/>
<path style="fill:#a36e4b; stroke:none;" d="M339 233L340 237C340.397 235.034 340.175 234.666 339 233z"/>
<path style="fill:#8d4f45; stroke:none;" d="M360.333 233.667C360.278 233.722 360.222 234.778 360.667 234.333C360.722 234.278 360.778 233.222 360.333 233.667z"/>
<path style="fill:#694635; stroke:none;" d="M243 234L244 235L243 234z"/>
<path style="fill:#4f2f2a; stroke:none;" d="M293 234L294 235L293 234z"/>
<path style="fill:#8d4f45; stroke:none;" d="M145.333 235.667C145.278 235.722 145.222 236.778 145.667 236.333C145.722 236.278 145.778 235.222 145.333 235.667z"/>
<path style="fill:#462c1b; stroke:none;" d="M231 235L232 236L231 235z"/>
<path style="fill:#694635; stroke:none;" d="M244 235L245 236L244 235M292 235L293 236L292 235z"/>
<path style="fill:#8a6346; stroke:none;" d="M298.333 235.667C298.278 235.722 298.222 236.778 298.667 236.333C298.722 236.278 298.778 235.222 298.333 235.667z"/>
<path style="fill:#2e231d; stroke:none;" d="M319.333 235.667C319.278 235.722 319.222 236.778 319.667 236.333C319.722 236.278 319.778 235.222 319.333 235.667z"/>
<path style="fill:#694635; stroke:none;" d="M330 235L331 236L330 235z"/>
<path style="fill:#8d4f45; stroke:none;" d="M361.333 235.667C361.278 235.722 361.222 236.778 361.667 236.333C361.722 236.278 361.778 235.222 361.333 235.667M176 236L177 240C177.262 238.117 177.036 237.629 176 236M231.333 236.667C231.278 236.722 231.222 237.778 231.667 237.333C231.722 237.278 231.778 236.222 231.333 236.667z"/>
<path style="fill:#694635; stroke:none;" d="M245 236L246 237L245 236M291 236L292 237L291 236z"/>
<path style="fill:#462c1b; stroke:none;" d="M329 236L330 237L329 236z"/>
<path style="fill:#8d4f45; stroke:none;" d="M144 237L145 238L144 237z"/>
<path style="fill:#462c1b; stroke:none;" d="M177 237L178 238L177 237M232.333 237.667C232.278 237.722 232.222 238.778 232.667 238.333C232.722 238.278 232.778 237.222 232.333 237.667z"/>
<path style="fill:#694635; stroke:none;" d="M246 237L247 238L246 237M290 237L291 238L290 237z"/>
<path style="fill:#8a6346; stroke:none;" d="M297.333 237.667C297.278 237.722 297.222 238.778 297.667 238.333C297.722 238.278 297.778 237.222 297.333 237.667z"/>
<path style="fill:#694635; stroke:none;" d="M318 237L319 238L318 237z"/>
<path style="fill:#462c1b; stroke:none;" d="M340 237L341 238L340 237z"/>
<path style="fill:#694635; stroke:none;" d="M341.333 237.667C341.278 237.722 341.222 238.778 341.667 238.333C341.722 238.278 341.778 237.222 341.333 237.667z"/>
<path style="fill:#4f2f2a; stroke:none;" d="M144 238L145 239L144 238z"/>
<path style="fill:#503f2d; stroke:none;" d="M156 238L157 239L156 238z"/>
<path style="fill:#4f2f2a; stroke:none;" d="M247 238L248 239L247 238z"/>
<path style="fill:#694635; stroke:none;" d="M289 238L290 239L289 238z"/>
<path style="fill:#ffffff; stroke:none;" d="M121 239L122 240L121 239z"/>
<path style="fill:#694635; stroke:none;" d="M143 239L144 240L143 239z"/>
<path style="fill:#462c1b; stroke:none;" d="M178 239L179 240L178 239z"/>
<path style="fill:#8d4f45; stroke:none;" d="M232 239L232 245C232.845 242.696 232.845 241.304 232 239z"/>
<path style="fill:#4f2f2a; stroke:none;" d="M288 239L289 240L288 239z"/>
<path style="fill:#8d4f45; stroke:none;" d="M296.333 239.667C296.278 239.722 296.222 240.778 296.667 240.333C296.722 240.278 296.778 239.222 296.333 239.667z"/>
<path style="fill:#4f2f2a; stroke:none;" d="M317 239L318 240L317 239z"/>
<path style="fill:#a36e4b; stroke:none;" d="M342 239C343.635 240.938 344.745 241.855 347 243C345.365 241.062 344.255 240.145 342 239z"/>
<path style="fill:#2e231d; stroke:none;" d="M381.333 239.667C381.278 239.722 381.222 240.778 381.667 240.333C381.722 240.278 381.778 239.222 381.333 239.667z"/>
<path style="fill:#694635; stroke:none;" d="M142 240L143 241L142 240z"/>
<path style="fill:#8d4f45; stroke:none;" d="M250.667 240.333C250.222 240.778 251.278 240.722 251.333 240.667C251.778 240.222 250.722 240.278 250.667 240.333z"/>
<path style="fill:#694635; stroke:none;" d="M286 240L287 241L286 240z"/>
<path style="fill:#2e231d; stroke:none;" d="M295 240L296 241L295 240z"/>
<path style="fill:#694635; stroke:none;" d="M316 240L317 241L316 240z"/>
<path style="fill:#2e231d; stroke:none;" d="M342 240L343 241L342 240z"/>
<path style="fill:#8d4f45; stroke:none;" d="M380 240L381 241L380 240z"/>
<path style="fill:#ffffff; stroke:none;" d="M120 241L121 242L120 241z"/>
<path style="fill:#a36e4b; stroke:none;" d="M138 244L142 242C139.692 241.442 139.244 242.004 138 244z"/>
<path style="fill:#462c1b; stroke:none;" d="M158 241L159 242L158 241z"/>
<path style="fill:#a36e4b; stroke:none;" d="M159 241C160.543 242.267 161.048 242.489 163 243C161.457 241.733 160.952 241.511 159 241M179 241C175.861 245.244 169.827 244 165 244C169.628 245.729 175.101 245 180 245C179.826 243.315 179.683 242.506 179 241z"/>
<path style="fill:#8d4f45; stroke:none;" d="M184 241C184.601 243.97 185.166 244.908 188 246L184 241M252.667 241.333C252.222 241.778 253.278 241.722 253.333 241.667C253.778 241.222 252.722 241.278 252.667 241.333M284 241L285 242L284 241z"/>
<path style="fill:#4f2f2a; stroke:none;" d="M285 241L286 242L285 241z"/>
<path style="fill:#8d4f45; stroke:none;" d="M315 241L316 242L315 241z"/>
<path style="fill:#462c1b; stroke:none;" d="M343 241L344 242L343 241z"/>
<path style="fill:#503f2d; stroke:none;" d="M380 241L381 242L380 241z"/>
<path style="fill:#8d4f45; stroke:none;" d="M120 242L119 246L124 246L120 242z"/>
<path style="fill:#694635; stroke:none;" d="M140 242L141 243L140 242M253.667 242.333C253.222 242.778 254.278 242.722 254.333 242.667C254.778 242.222 253.722 242.278 253.667 242.333M282.667 242.333C282.222 242.778 283.278 242.722 283.333 242.667C283.778 242.222 282.722 242.278 282.667 242.333z"/>
<path style="fill:#4f2f2a; stroke:none;" d="M294 242L295 243L294 242z"/>
<path style="fill:#8d4f45; stroke:none;" d="M314 242L315 243L314 242z"/>
<path style="fill:#462c1b; stroke:none;" d="M344 242L345 243L344 242z"/>
<path style="fill:#694635; stroke:none;" d="M379 242L380 243L379 242z"/>
<path style="fill:#ffffff; stroke:none;" d="M119 243L120 244L119 243z"/>
<path style="fill:#8d4f45; stroke:none;" d="M161.667 243.333C161.222 243.778 162.278 243.722 162.333 243.667C162.778 243.222 161.722 243.278 161.667 243.333z"/>
<path style="fill:#694635; stroke:none;" d="M180.333 243.667C180.278 243.722 180.222 244.778 180.667 244.333C180.722 244.278 180.778 243.222 180.333 243.667z"/>
<path style="fill:#4f2f2a; stroke:none;" d="M255.667 243.333C255.222 243.778 256.278 243.722 256.333 243.667C256.778 243.222 255.722 243.278 255.667 243.333M280.667 243.333C280.222 243.778 281.278 243.722 281.333 243.667C281.778 243.222 280.722 243.278 280.667 243.333z"/>
<path style="fill:#8d4f45; stroke:none;" d="M294 243C294.578 245.698 295.261 245.789 298 246L294 243z"/>
<path style="fill:#4f2f2a; stroke:none;" d="M313 243L314 244L313 243z"/>
<path style="fill:#8d4f45; stroke:none;" d="M346 243C347.458 244.081 348.248 244.436 350 245C348.457 243.733 347.952 243.511 346 243z"/>
<path style="fill:#503f2d; stroke:none;" d="M378 243L379 244L378 243z"/>
<path style="fill:#694635; stroke:none;" d="M135 244L138 245L135 244z"/>
<path style="fill:#8d4f45; stroke:none;" d="M163.667 244.333C163.222 244.778 164.278 244.722 164.333 244.667C164.778 244.222 163.722 244.278 163.667 244.333z"/>
<path style="fill:#503f2d; stroke:none;" d="M258 244L261 245L258 244z"/>
<path style="fill:#8d4f45; stroke:none;" d="M274 244L277 245L274 244z"/>
<path style="fill:#4f2f2a; stroke:none;" d="M277.667 244.333C277.222 244.778 278.278 244.722 278.333 244.667C278.778 244.222 277.722 244.278 277.667 244.333M310.667 244.333C310.222 244.778 311.278 244.722 311.333 244.667C311.778 244.222 310.722 244.278 310.667 244.333z"/>
<path style="fill:#462c1b; stroke:none;" d="M350 245C357.091 247.65 369.752 246.972 377 245C368.715 243.39 358.535 245 350 245z"/>
<path style="fill:#4f2f2a; stroke:none;" d="M124 245C127.521 246.316 131.267 246 135 246C131.479 244.684 127.733 245 124 245M165 245C169.897 246.83 175.815 246 181 246C176.103 244.17 170.185 245 165 245z"/>
<path style="fill:#694635; stroke:none;" d="M188 245C200.08 249.515 219.09 246 232 246C219.92 241.485 200.91 245 188 245z"/>
<path style="fill:#2e231d; stroke:none;" d="M261.667 245.333C261.222 245.778 262.278 245.722 262.333 245.667C262.778 245.222 261.722 245.278 261.667 245.333z"/>
<path style="fill:#8d4f45; stroke:none;" d="M263 245C266.236 246.21 269.564 245.998 273 246C269.764 244.79 266.436 245.002 263 245z"/>
<path style="fill:#4f2f2a; stroke:none;" d="M273.667 245.333C273.222 245.778 274.278 245.722 274.333 245.667C274.778 245.222 273.722 245.278 273.667 245.333z"/>
<path style="fill:#2e231d; stroke:none;" d="M275.667 245.333C275.222 245.778 276.278 245.722 276.333 245.667C276.778 245.222 275.722 245.278 275.667 245.333z"/>
<path style="fill:#4f2f2a; stroke:none;" d="M298 245C301.803 246.421 305.972 246 310 246C306.197 244.579 302.028 245 298 245z"/>
<path style="fill:#62584f; stroke:none;" d="M274.667 253.333C274.222 253.778 275.278 253.722 275.333 253.667C275.778 253.222 274.722 253.278 274.667 253.333z"/>
<path style="fill:#b2844c; stroke:none;" d="M275 254C281.896 256.577 291.672 258.409 299 260C292.217 254.418 283.545 253.227 275 254z"/>
<path style="fill:#62584f; stroke:none;" d="M277 253C278.764 253.703 280.083 253.884 282 254C280.236 253.297 278.917 253.116 277 253z"/>
<path style="fill:#503f2d; stroke:none;" d="M282.667 253.333C282.222 253.778 283.278 253.722 283.333 253.667C283.778 253.222 282.722 253.278 282.667 253.333z"/>
<path style="fill:#b2844c; stroke:none;" d="M128 269C133.206 261.995 137.811 258.119 146 255C137.586 253.03 129.261 261.205 128 269z"/>
<path style="fill:#a36e4b; stroke:none;" d="M146 254C155.038 257.378 168.371 255 178 255L178 261C178.893 258.64 178.966 256.529 179 254L146 254z"/>
<path style="fill:#b2844c; stroke:none;" d="M185 274C188.547 264.509 185.047 253.218 200 257C186.938 245.731 185 265.567 185 274z"/>
<path style="fill:#503f2d; stroke:none;" d="M197 254L198 255L197 254z"/>
<path style="fill:#a36e4b; stroke:none;" d="M222 259C226.588 256.296 229.678 255.121 235 256C230.222 252.738 224.874 254.068 222 259M264 256C267.625 256.852 271.311 255.372 275 255C271.17 253.644 267.773 254.82 264 256M319 254C319.002 258.106 319.094 261.982 320 266C320.895 262.475 320.049 258.65 320 255L357 255C346.439 251.053 330.271 254 319 254z"/>
<path style="fill:#ffffff; stroke:none;" d="M139 255L140 256L139 255z"/>
<path style="fill:#e99547; stroke:none;" d="M130 289L135 287C139.789 294.3 157.452 293.448 164 289C165.706 291.335 167.16 291.653 170 292C171.052 288.843 170.65 287.413 173 288C167.097 278.044 148.989 287.231 145.501 277.913C143.216 271.809 152.571 272.006 156 272C169.051 271.978 177.912 269.882 178 255C161.002 255 128.244 249.736 127.081 275C126.855 279.92 128.841 284.319 130 289M192.031 255.801C182.065 258.418 183.278 282.826 195.986 279.576C206.058 277 204.26 252.589 192.031 255.801M228 284L228 282C230.287 282.434 231.702 282.412 234 282C234.711 285.001 235.406 286.33 238 288L238 274C238 270.697 238.229 267.291 237.902 264.001C237.248 257.425 230.145 251.942 224.412 257.521C218.56 263.217 220.823 280.723 228 284M257 288C257.726 285.821 257.439 286.22 259 287L259 283C260.023 284.534 259.805 284.402 261 285C265.261 280.333 269.605 273.7 276 271.845C287.584 268.486 297.057 282.161 298 292C301.708 291.177 303.326 288.552 306 286L306 290C308.67 289.215 310.33 289.215 313 290C312.952 266.245 291.88 248.663 268 256.091C260.694 258.363 243.242 271.012 246.843 280.616C247.979 283.646 254.403 285.912 257 288z"/>
<path style="fill:#462c1b; stroke:none;" d="M291 255L292 256L291 255z"/>
<path style="fill:#e99547; stroke:none;" d="M320 255C320.151 280.678 339.978 264.932 353.769 273.539C361.424 278.315 334.812 286.122 348.724 295.588C365.644 307.099 377.003 278.529 370.899 266.038C362.908 249.683 334.657 255 320 255z"/>
<path style="fill:#b2844c; stroke:none;" d="M355 255C357.024 256.149 358.696 256.612 361 257C358.942 255.684 357.437 255.299 355 255z"/>
<path style="fill:#62584f; stroke:none;" d="M359 255L360 256L359 255z"/>
<path style="fill:#b2844c; stroke:none;" d="M235 256C235.686 257.436 235.938 257.824 237 259C236.314 257.564 236.062 257.176 235 256z"/>
<path style="fill:#8a6346; stroke:none;" d="M361 256L362 257L361 256z"/>
<path style="fill:#a36e4b; stroke:none;" d="M200 257C200.686 258.436 200.938 258.824 202 260C201.314 258.564 201.062 258.176 200 257z"/>
<path style="fill:#b2844c; stroke:none;" d="M248 273C253.429 267.841 257.833 262.453 264 258C256.588 257.55 250.145 266.754 248 273z"/>
<path style="fill:#62584f; stroke:none;" d="M295 257L296 258L295 257M363 257L364 258L363 257z"/>
<path style="fill:#503f2d; stroke:none;" d="M185 258L186 259L185 258z"/>
<path style="fill:#ffffff; stroke:none;" d="M221 258L222 259L221 258z"/>
<path style="fill:#a36e4b; stroke:none;" d="M237.333 258.667C237.278 258.722 237.222 259.778 237.667 259.333C237.722 259.278 237.778 258.222 237.333 258.667z"/>
<path style="fill:#503f2d; stroke:none;" d="M297 258L298 259L297 258z"/>
<path style="fill:#b2844c; stroke:none;" d="M364 258C364.899 260.124 364.876 260.101 367 261L364 258z"/>
<path style="fill:#8a6346; stroke:none;" d="M221 259C219.805 264.297 220 269.596 220 275C221.618 270.671 222.135 263.469 221 259z"/>
<path style="fill:#503f2d; stroke:none;" d="M366 259L367 260L366 259z"/>
<path style="fill:#8a6346; stroke:none;" d="M202.333 260.667C202.278 260.722 202.222 261.778 202.667 261.333C202.722 261.278 202.778 260.222 202.333 260.667z"/>
<path style="fill:#a36e4b; stroke:none;" d="M238 260L238 316C242.294 304.51 242.294 271.49 238 260z"/>
<path style="fill:#ffffff; stroke:none;" d="M257 260L258 261L257 260z"/>
<path style="fill:#a36e4b; stroke:none;" d="M299 260L300 261L299 260z"/>
<path style="fill:#4f2f2a; stroke:none;" d="M300 260L301 261L300 260z"/>
<path style="fill:#694635; stroke:none;" d="M367 260L368 261L367 260M178.333 261.667C178.278 261.722 178.222 262.778 178.667 262.333C178.722 262.278 178.778 261.222 178.333 261.667z"/>
<path style="fill:#4f2f2a; stroke:none;" d="M184.333 261.667C184.278 261.722 184.222 262.778 184.667 262.333C184.722 262.278 184.778 261.222 184.333 261.667z"/>
<path style="fill:#694635; stroke:none;" d="M301 261L302 262L301 261z"/>
<path style="fill:#503f2d; stroke:none;" d="M368 261L369 262L368 261z"/>
<path style="fill:#a36e4b; stroke:none;" d="M202 262L202 275C203.493 271.005 203.493 265.995 202 262z"/>
<path style="fill:#b2844c; stroke:none;" d="M221 262L221 277C222.646 272.597 222.646 266.403 221 262z"/>
<path style="fill:#2e231d; stroke:none;" d="M239 262L239 305C242.477 295.697 242.477 271.303 239 262z"/>
<path style="fill:#62584f; stroke:none;" d="M302 262L303 263L302 262z"/>
<path style="fill:#462c1b; stroke:none;" d="M369 262L370 263L369 262z"/>
<path style="fill:#ffffff; stroke:none;" d="M129 263L130 264L129 263z"/>
<path style="fill:#8a6346; stroke:none;" d="M177 263L177 266C177.696 264.446 177.696 264.554 177 263z"/>
<path style="fill:#694635; stroke:none;" d="M184 263L184 273C185.244 269.671 185.244 266.329 184 263z"/>
<path style="fill:#8a6346; stroke:none;" d="M303 263L304 264L303 263z"/>
<path style="fill:#62584f; stroke:none;" d="M304 264L305 265L304 264M370 264L371 265L370 264z"/>
<path style="fill:#694635; stroke:none;" d="M305 265L306 266L305 265z"/>
<path style="fill:#462c1b; stroke:none;" d="M371 265L372 266L371 265z"/>
<path style="fill:#8a6346; stroke:none;" d="M176 266L177 267L176 266z"/>
<path style="fill:#503f2d; stroke:none;" d="M306 266L307 267L306 266M320 266L321 267L320 266z"/>
<path style="fill:#8a6346; stroke:none;" d="M321.333 266.667C321.278 266.722 321.222 267.778 321.667 267.333C321.722 267.278 321.778 266.222 321.333 266.667z"/>
<path style="fill:#b2844c; stroke:none;" d="M371.333 266.667C371.278 266.722 371.222 267.778 371.667 267.333C371.722 267.278 371.778 266.222 371.333 266.667z"/>
<path style="fill:#a36e4b; stroke:none;" d="M127 267C125.652 274.425 125.534 281.149 129 288C129.7 283.25 128.409 271.668 127 267z"/>
<path style="fill:#8a6346; stroke:none;" d="M175 267L176 268L175 267z"/>
<path style="fill:#462c1b; stroke:none;" d="M307 267L308 268L307 267M372 267L373 268L372 267z"/>
<path style="fill:#a36e4b; stroke:none;" d="M174 268L175 269L174 268z"/>
<path style="fill:#4f2f2a; stroke:none;" d="M175 268L176 269L175 268z"/>
<path style="fill:#8a6346; stroke:none;" d="M307 268L308 269L307 268z"/>
<path style="fill:#a36e4b; stroke:none;" d="M322 268C323.176 269.062 323.564 269.314 325 270C323.824 268.938 323.436 268.686 322 268M372.333 268.667C372.278 268.722 372.222 269.778 372.667 269.333C372.722 269.278 372.778 268.222 372.333 268.667z"/>
<path style="fill:#8a6346; stroke:none;" d="M173 269L174 270L173 269z"/>
<path style="fill:#462c1b; stroke:none;" d="M174 269L175 270L174 269z"/>
<path style="fill:#694635; stroke:none;" d="M308 269L309 270L308 269M172 270L173 271L172 270z"/>
<path style="fill:#ffffff; stroke:none;" d="M248 270L249 271L248 270z"/>
<path style="fill:#4f2f2a; stroke:none;" d="M309 270L310 271L309 270z"/>
<path style="fill:#694635; stroke:none;" d="M324 270L325 271L324 270M373.333 270.667C373.278 270.722 373.222 271.778 373.667 271.333C373.722 271.278 373.778 270.222 373.333 270.667z"/>
<path style="fill:#8a6346; stroke:none;" d="M168 271L171 272L168 271z"/>
<path style="fill:#b2844c; stroke:none;" d="M275 271C277.064 271.791 278.776 271.931 281 272C278.936 271.209 277.224 271.069 275 271z"/>
<path style="fill:#8a6346; stroke:none;" d="M326.667 271.333C326.222 271.778 327.278 271.722 327.333 271.667C327.778 271.222 326.722 271.278 326.667 271.333z"/>
<path style="fill:#694635; stroke:none;" d="M146 272C152.476 274.42 161.127 273 168 273C161.524 270.58 152.873 272 146 272z"/>
<path style="fill:#8a6346; stroke:none;" d="M273.667 272.333C273.222 272.778 274.278 272.722 274.333 272.667C274.778 272.222 273.722 272.278 273.667 272.333z"/>
<path style="fill:#694635; stroke:none;" d="M275 272L278 273L275 272z"/>
<path style="fill:#462c1b; stroke:none;" d="M278 272L281 273L278 272z"/>
<path style="fill:#694635; stroke:none;" d="M281.667 272.333C281.222 272.778 282.278 272.722 282.333 272.667C282.778 272.222 281.722 272.278 281.667 272.333z"/>
<path style="fill:#a36e4b; stroke:none;" d="M283.667 272.333C283.222 272.778 284.278 272.722 284.333 272.667C284.778 272.222 283.722 272.278 283.667 272.333z"/>
<path style="fill:#503f2d; stroke:none;" d="M310 272L311 273L310 272M328.667 272.333C328.222 272.778 329.278 272.722 329.333 272.667C329.778 272.222 328.722 272.278 328.667 272.333z"/>
<path style="fill:#694635; stroke:none;" d="M330 272C336.735 274.517 345.849 273 353 273C346.265 270.483 337.151 272 330 272z"/>
<path style="fill:#b2844c; stroke:none;" d="M373 272L373 281C374.153 277.911 374.153 275.09 373 272z"/>
<path style="fill:#2e231d; stroke:none;" d="M374 272L374 281C375.153 277.911 375.153 275.09 374 272z"/>
<path style="fill:#8a6346; stroke:none;" d="M145 273L146 274L145 273z"/>
<path style="fill:#462c1b; stroke:none;" d="M184.333 273.667C184.278 273.722 184.222 274.778 184.667 274.333C184.722 274.278 184.778 273.222 184.333 273.667z"/>
<path style="fill:#a36e4b; stroke:none;" d="M247.333 273.667C247.278 273.722 247.222 274.778 247.667 274.333C247.722 274.278 247.778 273.222 247.333 273.667z"/>
<path style="fill:#462c1b; stroke:none;" d="M272.667 273.333C272.222 273.778 273.278 273.722 273.333 273.667C273.778 273.222 272.722 273.278 272.667 273.333z"/>
<path style="fill:#010101; stroke:none;" d="M274 273.648C254.487 279.462 264.348 310.405 284 304.135C303.665 297.86 294.288 267.603 274 273.648z"/>
<path style="fill:#8a6346; stroke:none;" d="M285.667 273.333C285.222 273.778 286.278 273.722 286.333 273.667C286.778 273.222 285.722 273.278 285.667 273.333z"/>
<path style="fill:#b2844c; stroke:none;" d="M310 273L311 277C311.262 275.117 311.036 274.629 310 273z"/>
<path style="fill:#4f2f2a; stroke:none;" d="M354 273L355 274L354 273z"/>
<path style="fill:#a36e4b; stroke:none;" d="M144 274L145 275L144 274z"/>
<path style="fill:#8a6346; stroke:none;" d="M185 274C185.712 276.328 186.283 277.274 188 279C187.171 276.963 186.425 275.666 185 274M270 274L271 275L270 274M287.667 274.333C287.222 274.778 288.278 274.722 288.333 274.667C288.778 274.222 287.722 274.278 287.667 274.333z"/>
<path style="fill:#503f2d; stroke:none;" d="M311 274L312 275L311 274M355 274L356 275L355 274z"/>
<path style="fill:#a36e4b; stroke:none;" d="M356 274C354.239 279.081 332.929 290.019 349 296C338.406 282.095 359.02 283.656 356 274z"/>
<path style="fill:#503f2d; stroke:none;" d="M144 275L144 278C144.696 276.446 144.696 276.554 144 275z"/>
<path style="fill:#a36e4b; stroke:none;" d="M220 275C214.296 284.398 206.108 285.118 196 286C203.079 288.368 221.975 285.686 220 275M246 275L246 278C246.696 276.446 246.696 276.554 246 275z"/>
<path style="fill:#694635; stroke:none;" d="M269 275L270 276L269 275z"/>
<path style="fill:#62584f; stroke:none;" d="M289 275L290 276L289 275z"/>
<path style="fill:#8a6346; stroke:none;" d="M201 276L202 277L201 276z"/>
<path style="fill:#503f2d; stroke:none;" d="M268 276L269 277L268 276M290 276L291 277L290 276z"/>
<path style="fill:#694635; stroke:none;" d="M312.333 276.667C312.278 276.722 312.222 277.778 312.667 277.333C312.722 277.278 312.778 276.222 312.333 276.667z"/>
<path style="fill:#a36e4b; stroke:none;" d="M200 277L199 279C200.263 278.029 200.392 278.306 200 277z"/>
<path style="fill:#462c1b; stroke:none;" d="M201 277L202 278L201 277z"/>
<path style="fill:#e46c56; stroke:none;" d="M221 277C211.622 288.724 193.999 282.249 187.275 296.004C183.832 303.046 186.07 332.017 199.479 320.911C204.576 316.69 200.894 306.713 203.111 301.01C206.169 293.145 215.409 288.593 222 284C222 292.073 218.139 314.163 223.717 320.27C228.403 325.4 236.233 322.113 237.594 315.989C240.147 304.497 237.789 292.53 234 282C231.9 282.2 230.098 282.209 228 282L228 284C224.979 282.046 223.196 279.797 221 277z"/>
<path style="fill:#4f2f2a; stroke:none;" d="M267 277L268 278L267 277z"/>
<path style="fill:#694635; stroke:none;" d="M291 277L292 278L291 277z"/>
<path style="fill:#503f2d; stroke:none;" d="M200 278L201 279L200 278z"/>
<path style="fill:#b2844c; stroke:none;" d="M245 278L245 284C245.845 281.696 245.845 280.304 245 278z"/>
<path style="fill:#503f2d; stroke:none;" d="M266 278L267 279L266 278z"/>
<path style="fill:#8d4f45; stroke:none;" d="M292 278L293 279L292 278z"/>
<path style="fill:#b2844c; stroke:none;" d="M293 278L294 282C294.397 280.034 294.175 279.666 293 278z"/>
<path style="fill:#a36e4b; stroke:none;" d="M312 278L312 281C312.696 279.446 312.696 279.554 312 278z"/>
<path style="fill:#8d4f45; stroke:none;" d="M145 279L146 280L145 279z"/>
<path style="fill:#8a6346; stroke:none;" d="M188.667 279.333C188.222 279.778 189.278 279.722 189.333 279.667C189.778 279.222 188.722 279.278 188.667 279.333M198 279L199 280L198 279z"/>
<path style="fill:#462c1b; stroke:none;" d="M199 279L200 280L199 279z"/>
<path style="fill:#8d4f45; stroke:none;" d="M265 279L266 280L265 279z"/>
<path style="fill:#462c1b; stroke:none;" d="M352 279L353 280L352 279z"/>
<path style="fill:#8a6346; stroke:none;" d="M146 280C152.073 282.269 160.471 281.43 167 282C160.95 278.654 152.725 280 146 280z"/>
<path style="fill:#8d4f45; stroke:none;" d="M190.667 280.333C190.222 280.778 191.278 280.722 191.333 280.667C191.778 280.222 190.722 280.278 190.667 280.333z"/>
<path style="fill:#a36e4b; stroke:none;" d="M192 280C193.764 280.703 195.083 280.884 197 281C195.236 280.297 193.917 280.116 192 280z"/>
<path style="fill:#503f2d; stroke:none;" d="M197 280L198 281L197 280z"/>
<path style="fill:#694635; stroke:none;" d="M293 280L294 281L293 280M313.333 280.667C313.278 280.722 313.222 281.778 313.667 281.333C313.722 281.278 313.778 280.222 313.333 280.667z"/>
<path style="fill:#62584f; stroke:none;" d="M327 280L330 281L327 280z"/>
<path style="fill:#b2844c; stroke:none;" d="M147 281C151.897 282.83 157.815 282 163 282C158.103 280.17 152.185 281 147 281z"/>
<path style="fill:#462c1b; stroke:none;" d="M167 281L168 282L167 281z"/>
<path style="fill:#2e231d; stroke:none;" d="M192 281C193.506 281.683 194.315 281.826 196 282C194.494 281.317 193.685 281.174 192 281z"/>
<path style="fill:#694635; stroke:none;" d="M264 281L265 282L264 281z"/>
<path style="fill:#a36e4b; stroke:none;" d="M321 285C326.312 282.91 329.448 282.717 335 284C330.641 280.239 324.355 279.882 321 285z"/>
<path style="fill:#62584f; stroke:none;" d="M332 281L333 282L332 281z"/>
<path style="fill:#694635; stroke:none;" d="M373.333 281.667C373.278 281.722 373.222 282.778 373.667 282.333C373.722 282.278 373.778 281.222 373.333 281.667z"/>
<path style="fill:#503f2d; stroke:none;" d="M126 282L127 283L126 282z"/>
<path style="fill:#8a6346; stroke:none;" d="M168 282C169.45 283.608 170.051 284.064 172 285C170.607 283.566 169.767 282.955 168 282z"/>
<path style="fill:#4f2f2a; stroke:none;" d="M169 282L170 283L169 282z"/>
<path style="fill:#8a6346; stroke:none;" d="M244 282C244 287.426 244.298 292.621 245 298C246.471 293.603 245.62 286.333 244 282z"/>
<path style="fill:#e46c56; stroke:none;" d="M246 282C238.997 313.064 277.744 336.189 301.94 315.497C307.482 310.758 311.452 304.249 312.533 297.003C313.317 291.748 311.669 287.391 306 290L306 286C303.089 287.986 301.353 290.755 298 292L298 286C295.173 292.717 294.775 299.618 287.8 303.73C273.003 312.453 261.416 296.569 263 283C261.135 283.676 261.137 284.096 260 283C259.317 284.506 259.174 285.315 259 287C257.328 286.662 257.69 286.463 257 288C253.754 284.555 250.492 283.292 246 282z"/>
<path style="fill:#8d4f45; stroke:none;" d="M263.333 282.667C263.278 282.722 263.222 283.778 263.667 283.333C263.722 283.278 263.778 282.222 263.333 282.667z"/>
<path style="fill:#462c1b; stroke:none;" d="M294.333 282.667C294.278 282.722 294.222 283.778 294.667 283.333C294.722 283.278 294.778 282.222 294.333 282.667z"/>
<path style="fill:#b2844c; stroke:none;" d="M313 282L313 294C314.413 290.219 314.413 285.781 313 282z"/>
<path style="fill:#e46c56; stroke:none;" d="M325.042 283.003C315.23 286.645 316.418 328.337 331.902 322.009C341.192 318.212 341.923 276.738 325.042 283.003z"/>
<path style="fill:#b2844c; stroke:none;" d="M372 282L371 287C372.21 285.06 372.506 284.22 372 282z"/>
<path style="fill:#2e231d; stroke:none;" d="M314 283L314 286C314.696 284.446 314.696 284.554 314 283z"/>
<path style="fill:#462c1b; stroke:none;" d="M335 283L336 284L335 283z"/>
<path style="fill:#694635; stroke:none;" d="M172 284C172.902 285.922 173.076 285.999 175 287L172 284z"/>
<path style="fill:#462c1b; stroke:none;" d="M205.667 284.333C205.222 284.778 206.278 284.722 206.333 284.667C206.778 284.222 205.722 284.278 205.667 284.333z"/>
<path style="fill:#8a6346; stroke:none;" d="M207 284C208.506 284.683 209.315 284.826 211 285C209.494 284.317 208.685 284.174 207 284z"/>
<path style="fill:#a36e4b; stroke:none;" d="M220 284C222.301 294.199 221 305.581 221 316C223.256 309.963 224.627 288.671 220 284z"/>
<path style="fill:#2e231d; stroke:none;" d="M263.333 284.667C263.278 284.722 263.222 285.778 263.667 285.333C263.722 285.278 263.778 284.222 263.333 284.667z"/>
<path style="fill:#462c1b; stroke:none;" d="M320 284L321 285L320 284M127 285L128 286L127 285z"/>
<path style="fill:#503f2d; stroke:none;" d="M199.667 285.333C199.222 285.778 200.278 285.722 200.333 285.667C200.778 285.222 199.722 285.278 199.667 285.333z"/>
<path style="fill:#8a6346; stroke:none;" d="M219 285L220 286L219 285z"/>
<path style="fill:#2e231d; stroke:none;" d="M220 285L220 293C221.058 290.161 221.058 287.839 220 285z"/>
<path style="fill:#8a6346; stroke:none;" d="M295 285L295 294C296.153 290.91 296.153 288.09 295 285z"/>
<path style="fill:#a36e4b; stroke:none;" d="M296 285L296 292C296.955 289.422 296.955 287.578 296 285z"/>
<path style="fill:#8a6346; stroke:none;" d="M336.333 285.667C336.278 285.722 336.222 286.778 336.667 286.333C336.722 286.278 336.778 285.222 336.333 285.667z"/>
<path style="fill:#503f2d; stroke:none;" d="M372 285L373 286L372 285z"/>
<path style="fill:#e46c56; stroke:none;" d="M173 286C172.274 288.179 172.561 287.78 171 287L170 292C167.46 291.301 165.971 290.725 164 289C156.099 293.293 141.621 293.765 135 287L132 288C135.505 294.733 141.716 296.926 149 296.997C153.109 297.036 160.496 296.037 162.181 301.118C164.222 307.267 154.452 306.987 151 306.999C138.464 307.043 128.098 307.891 128 323C140.039 323 156.739 325.971 168 321.331C182.508 315.353 183.061 296.127 173 286z"/>
<path style="fill:#a36e4b; stroke:none;" d="M218 286L219 287L218 286z"/>
<path style="fill:#8a6346; stroke:none;" d="M262 286L262 291C262.722 288.974 262.722 288.026 262 286z"/>
<path style="fill:#503f2d; stroke:none;" d="M314 286L314 292C314.845 289.696 314.845 288.304 314 286z"/>
<path style="fill:#8a6346; stroke:none;" d="M343 286L343 291C343.722 288.974 343.722 288.026 343 286z"/>
<path style="fill:#a36e4b; stroke:none;" d="M175 287L177 292C177.082 289.696 176.469 288.801 175 287M192 289C194.092 288.594 194.02 288.783 195 287C193.564 287.686 193.176 287.938 192 289z"/>
<path style="fill:#8a6346; stroke:none;" d="M217 287L218 288L217 287z"/>
<path style="fill:#8d4f45; stroke:none;" d="M319 287C319 296.202 315.013 316.763 324 322C317.272 310.598 323.332 298.591 319 287M337 287L337 318C339.718 310.728 339.718 294.272 337 287z"/>
<path style="fill:#503f2d; stroke:none;" d="M371 287L372 288L371 287z"/>
<path style="fill:#694635; stroke:none;" d="M129 288L130 289L129 288z"/>
<path style="fill:#4f2f2a; stroke:none;" d="M176 288L177 289L176 288z"/>
<path style="fill:#694635; stroke:none;" d="M216 288L217 289L216 288z"/>
<path style="fill:#8a6346; stroke:none;" d="M370 288L371 289L370 288z"/>
<path style="fill:#a36e4b; stroke:none;" d="M130 289C132.348 291.997 134.427 293.67 138 295C135.544 292.453 133.178 290.556 130 289z"/>
<path style="fill:#8a6346; stroke:none;" d="M186 297C188.547 294.544 190.444 292.178 192 289C188.394 290.954 186.935 293.014 186 297M214 289L215 290L214 289z"/>
<path style="fill:#4f2f2a; stroke:none;" d="M215 289L216 290L215 289z"/>
<path style="fill:#a36e4b; stroke:none;" d="M369 289L370 290L369 289z"/>
<path style="fill:#462c1b; stroke:none;" d="M370 289L371 290L370 289z"/>
<path style="fill:#503f2d; stroke:none;" d="M213 290L214 291L213 290M369 290L370 291L369 290z"/>
<path style="fill:#694635; stroke:none;" d="M178.333 291.667C178.278 291.722 178.222 292.778 178.667 292.333C178.722 292.278 178.778 291.222 178.333 291.667M210 291L210 293C211.635 292.455 211.455 292.635 212 291L210 291z"/>
<path style="fill:#503f2d; stroke:none;" d="M343 291L344 292L343 291z"/>
<path style="fill:#694635; stroke:none;" d="M368 291L369 292L368 291z"/>
<path style="fill:#8d4f45; stroke:none;" d="M209 292L210 293L209 292z"/>
<path style="fill:#4f2f2a; stroke:none;" d="M263 292L263 295C263.696 293.446 263.696 293.554 263 292z"/>
<path style="fill:#2e231d; stroke:none;" d="M314 292L314 295C314.696 293.446 314.696 293.554 314 292z"/>
<path style="fill:#694635; stroke:none;" d="M367 292L368 293L367 292M208 293L209 294L208 293M220 293C220 301.556 219.109 310.617 221 319C222.616 312.636 222.311 299.183 220 293z"/>
<path style="fill:#62584f; stroke:none;" d="M294 293L295 294L294 293z"/>
<path style="fill:#694635; stroke:none;" d="M344 293L345 294L344 293M366 293L367 294L366 293z"/>
<path style="fill:#462c1b; stroke:none;" d="M135 294L136 295L135 294z"/>
<path style="fill:#8d4f45; stroke:none;" d="M179.333 294.667C179.278 294.722 179.222 295.778 179.667 295.333C179.722 295.278 179.778 294.222 179.333 294.667z"/>
<path style="fill:#503f2d; stroke:none;" d="M207 294L208 295L207 294z"/>
<path style="fill:#462c1b; stroke:none;" d="M244.333 294.667C244.278 294.722 244.222 295.778 244.667 295.333C244.722 295.278 244.778 294.222 244.333 294.667z"/>
<path style="fill:#a36e4b; stroke:none;" d="M294 294C290.96 299.552 286.922 302.848 281 305C287.046 306.706 295.847 300.676 294 294z"/>
<path style="fill:#8d4f45; stroke:none;" d="M313 294L313 297C313.696 295.446 313.696 295.554 313 294z"/>
<path style="fill:#8a6346; stroke:none;" d="M364 294L365 295L364 294z"/>
<path style="fill:#462c1b; stroke:none;" d="M365 294L366 295L365 294z"/>
<path style="fill:#8d4f45; stroke:none;" d="M137 295C138.748 296.162 139.928 296.575 142 297C140.252 295.838 139.072 295.425 137 295z"/>
<path style="fill:#a36e4b; stroke:none;" d="M205 295L206 296L205 295z"/>
<path style="fill:#4f2f2a; stroke:none;" d="M206 295L207 296L206 295z"/>
<path style="fill:#694635; stroke:none;" d="M363 295L364 296L363 295z"/>
<path style="fill:#462c1b; stroke:none;" d="M180 296L180 299C180.696 297.446 180.696 297.554 180 296z"/>
<path style="fill:#8d4f45; stroke:none;" d="M185 296L185 299C185.696 297.446 185.696 297.554 185 296z"/>
<path style="fill:#694635; stroke:none;" d="M205 296L206 297L205 296M264 296L265 297L264 296z"/>
<path style="fill:#8a6346; stroke:none;" d="M347.667 296.333C347.222 296.778 348.278 296.722 348.333 296.667C348.778 296.222 347.722 296.278 347.667 296.333z"/>
<path style="fill:#694635; stroke:none;" d="M361 296L362 297L361 296z"/>
<path style="fill:#503f2d; stroke:none;" d="M142.667 297.333C142.222 297.778 143.278 297.722 143.333 297.667C143.778 297.222 142.722 297.278 142.667 297.333z"/>
<path style="fill:#8d4f45; stroke:none;" d="M144 297C148.897 298.83 154.815 298 160 298C155.103 296.17 149.185 297 144 297z"/>
<path style="fill:#a36e4b; stroke:none;" d="M312.333 297.667C312.278 297.722 312.222 298.778 312.667 298.333C312.722 298.278 312.778 297.222 312.333 297.667z"/>
<path style="fill:#462c1b; stroke:none;" d="M313.333 297.667C313.278 297.722 313.222 298.778 313.667 298.333C313.722 298.278 313.778 297.222 313.333 297.667z"/>
<path style="fill:#694635; stroke:none;" d="M349 297L352 298L349 297z"/>
<path style="fill:#8a6346; stroke:none;" d="M352 297C353.764 297.703 355.083 297.884 357 298C355.236 297.297 353.917 297.116 352 297z"/>
<path style="fill:#503f2d; stroke:none;" d="M357 297L360 298L357 297z"/>
<path style="fill:#8d4f45; stroke:none;" d="M160.667 298.333C160.222 298.778 161.278 298.722 161.333 298.667C161.778 298.222 160.722 298.278 160.667 298.333z"/>
<path style="fill:#694635; stroke:none;" d="M245.333 298.667C245.278 298.722 245.222 299.778 245.667 299.333C245.722 299.278 245.778 298.222 245.333 298.667z"/>
<path style="fill:#a36e4b; stroke:none;" d="M265.333 298.667C265.278 298.722 265.222 299.778 265.667 299.333C265.722 299.278 265.778 298.222 265.333 298.667z"/>
<path style="fill:#462c1b; stroke:none;" d="M161 299L162 300L161 299z"/>
<path style="fill:#694635; stroke:none;" d="M162.333 299.667C162.278 299.722 162.222 300.778 162.667 300.333C162.722 300.278 162.778 299.222 162.333 299.667z"/>
<path style="fill:#8d4f45; stroke:none;" d="M180 299L180 306C180.955 303.422 180.955 301.578 180 299z"/>
<path style="fill:#a36e4b; stroke:none;" d="M185 299L185 317C186.861 312.019 186.861 303.981 185 299z"/>
<path style="fill:#503f2d; stroke:none;" d="M203.333 299.667C203.278 299.722 203.222 300.778 203.667 300.333C203.722 300.278 203.778 299.222 203.333 299.667M266 299L267 300L266 299z"/>
<path style="fill:#694635; stroke:none;" d="M312.333 299.667C312.278 299.722 312.222 300.778 312.667 300.333C312.722 300.278 312.778 299.222 312.333 299.667z"/>
<path style="fill:#8d4f45; stroke:none;" d="M246 300C246.671 302.884 247.687 305.344 249 308C249.37 304.712 248.098 302.488 246 300z"/>
<path style="fill:#4f2f2a; stroke:none;" d="M267 300L268 301L267 300M162.333 301.667C162.278 301.722 162.222 302.778 162.667 302.333C162.722 302.278 162.778 301.222 162.333 301.667z"/>
<path style="fill:#462c1b; stroke:none;" d="M184 301L184 312C185.33 308.44 185.33 304.56 184 301z"/>
<path style="fill:#a36e4b; stroke:none;" d="M202 301L202 317C203.719 312.4 203.719 305.6 202 301z"/>
<path style="fill:#2e231d; stroke:none;" d="M203 301L203 316C204.646 311.597 204.646 305.403 203 301z"/>
<path style="fill:#694635; stroke:none;" d="M268 301L269 302L268 301z"/>
<path style="fill:#8d4f45; stroke:none;" d="M269 302L270 303L269 302z"/>
<path style="fill:#694635; stroke:none;" d="M311.333 302.667C311.278 302.722 311.222 303.778 311.667 303.333C311.722 303.278 311.778 302.222 311.333 302.667z"/>
<path style="fill:#a36e4b; stroke:none;" d="M162 303C148.923 311.882 126.389 298.428 126 323L128 323C128.05 308.328 138.962 307 151 307C153.97 307 163.852 308.019 162 303z"/>
<path style="fill:#694635; stroke:none;" d="M271 303L272 304L271 303M247 304L248 305L247 304z"/>
<path style="fill:#8a6346; stroke:none;" d="M272 304C274.885 305.975 277.545 305.974 281 306C278.11 304.805 275.099 304.411 272 304z"/>
<path style="fill:#503f2d; stroke:none;" d="M310.333 304.667C310.278 304.722 310.222 305.778 310.667 305.333C310.722 305.278 310.778 304.222 310.333 304.667z"/>
<path style="fill:#62584f; stroke:none;" d="M138.667 305.333C138.222 305.778 139.278 305.722 139.333 305.667C139.778 305.222 138.722 305.278 138.667 305.333z"/>
<path style="fill:#8d4f45; stroke:none;" d="M140 305C145.955 307.225 153.685 306 160 306C154.045 303.775 146.315 305 140 305z"/>
<path style="fill:#462c1b; stroke:none;" d="M239 305L239 315C240.244 311.671 240.244 308.329 239 305z"/>
<path style="fill:#a36e4b; stroke:none;" d="M179 306L179 309C179.696 307.446 179.696 307.554 179 306z"/>
<path style="fill:#2e231d; stroke:none;" d="M180.333 306.667C180.278 306.722 180.222 307.778 180.667 307.333C180.722 307.278 180.778 306.222 180.333 306.667z"/>
<path style="fill:#8d4f45; stroke:none;" d="M309 306L310 307L309 306z"/>
<path style="fill:#2e231d; stroke:none;" d="M249 308L250 309L249 308z"/>
<path style="fill:#4f2f2a; stroke:none;" d="M250.333 308.667C250.278 308.722 250.222 309.778 250.667 309.333C250.722 309.278 250.778 308.222 250.333 308.667z"/>
<path style="fill:#694635; stroke:none;" d="M308 308L309 309L308 308z"/>
<path style="fill:#462c1b; stroke:none;" d="M179.333 309.667C179.278 309.722 179.222 310.778 179.667 310.333C179.722 310.278 179.778 309.222 179.333 309.667z"/>
<path style="fill:#8d4f45; stroke:none;" d="M307 309L308 310L307 309M178 310L178 313C178.696 311.446 178.696 311.554 178 310z"/>
<path style="fill:#a36e4b; stroke:none;" d="M251 310C253.327 313.137 255.507 315.24 259 317C256.673 313.863 254.493 311.76 251 310z"/>
<path style="fill:#8d4f45; stroke:none;" d="M306 310L307 311L306 310z"/>
<path style="fill:#4f2f2a; stroke:none;" d="M306 311L307 312L306 311z"/>
<path style="fill:#503f2d; stroke:none;" d="M184 312L184 318C184.845 315.696 184.845 314.304 184 312z"/>
<path style="fill:#694635; stroke:none;" d="M305 312L306 313L305 312z"/>
<path style="fill:#ffffff; stroke:none;" d="M127 313L128 314L127 313z"/>
<path style="fill:#694635; stroke:none;" d="M304 313L305 314L304 313z"/>
<path style="fill:#4f2f2a; stroke:none;" d="M303 314L304 315L303 314M176 315L177 316L176 315M302 315L303 316L302 315z"/>
<path style="fill:#694635; stroke:none;" d="M175 316L176 317L175 316M238 316L237 320C238.175 318.334 238.397 317.966 238 316z"/>
<path style="fill:#8d4f45; stroke:none;" d="M300 316L301 317L300 316z"/>
<path style="fill:#462c1b; stroke:none;" d="M301 316L302 317L301 316z"/>
<path style="fill:#a36e4b; stroke:none;" d="M336 316L336 319C336.696 317.446 336.696 317.554 336 316z"/>
<path style="fill:#694635; stroke:none;" d="M174 317L175 318L174 317z"/>
<path style="fill:#62584f; stroke:none;" d="M185.333 317.667C185.278 317.722 185.222 318.778 185.667 318.333C185.722 318.278 185.778 317.222 185.333 317.667z"/>
<path style="fill:#8d4f45; stroke:none;" d="M186 317C186.714 320.393 187.865 321.559 191 323L186 317z"/>
<path style="fill:#4f2f2a; stroke:none;" d="M202.333 317.667C202.278 317.722 202.222 318.778 202.667 318.333C202.722 318.278 202.778 317.222 202.333 317.667z"/>
<path style="fill:#8d4f45; stroke:none;" d="M237.333 317.667C237.278 317.722 237.222 318.778 237.667 318.333C237.722 318.278 237.778 317.222 237.333 317.667z"/>
<path style="fill:#4f2f2a; stroke:none;" d="M258 317L259 318L258 317z"/>
<path style="fill:#8d4f45; stroke:none;" d="M259 317C260.176 318.062 260.564 318.314 262 319C260.824 317.938 260.436 317.686 259 317z"/>
<path style="fill:#694635; stroke:none;" d="M299 317L300 318L299 317M173 318L174 319L173 318z"/>
<path style="fill:#4f2f2a; stroke:none;" d="M298 318L299 319L298 318M172 319L173 320L172 319z"/>
<path style="fill:#8d4f45; stroke:none;" d="M201 319L202 320L201 319z"/>
<path style="fill:#694635; stroke:none;" d="M261.667 319.333C261.222 319.778 262.278 319.722 262.333 319.667C262.778 319.222 261.722 319.278 261.667 319.333M296 319L297 320L296 319z"/>
<path style="fill:#4f2f2a; stroke:none;" d="M336 319L337 320L336 319z"/>
<path style="fill:#694635; stroke:none;" d="M170 320L171 321L170 320z"/>
<path style="fill:#462c1b; stroke:none;" d="M201 320L202 321L201 320z"/>
<path style="fill:#4f2f2a; stroke:none;" d="M222 320L223 321L222 320z"/>
<path style="fill:#8d4f45; stroke:none;" d="M236 320L237 321L236 320M263.667 320.333C263.222 320.778 264.278 320.722 264.333 320.667C264.778 320.222 263.722 320.278 263.667 320.333z"/>
<path style="fill:#694635; stroke:none;" d="M294 320L295 321L294 320M335 320L336 321L335 320M167.667 321.333C167.222 321.778 168.278 321.722 168.333 321.667C168.778 321.222 167.722 321.278 167.667 321.333z"/>
<path style="fill:#2e231d; stroke:none;" d="M187 321L188 322L187 321z"/>
<path style="fill:#8d4f45; stroke:none;" d="M199 321L200 322L199 321z"/>
<path style="fill:#462c1b; stroke:none;" d="M200 321L201 322L200 321z"/>
<path style="fill:#8d4f45; stroke:none;" d="M223.667 321.333C223.222 321.778 224.278 321.722 224.333 321.667C224.778 321.222 223.722 321.278 223.667 321.333z"/>
<path style="fill:#694635; stroke:none;" d="M235 321L236 322L235 321M265.667 321.333C265.222 321.778 266.278 321.722 266.333 321.667C266.778 321.222 265.722 321.278 265.667 321.333z"/>
<path style="fill:#2e231d; stroke:none;" d="M292.667 321.333C292.222 321.778 293.278 321.722 293.333 321.667C293.778 321.222 292.722 321.278 292.667 321.333z"/>
<path style="fill:#4f2f2a; stroke:none;" d="M334 321L335 322L334 321z"/>
<path style="fill:#503f2d; stroke:none;" d="M165.667 322.333C165.222 322.778 166.278 322.722 166.333 322.667C166.778 322.222 165.722 322.278 165.667 322.333z"/>
<path style="fill:#694635; stroke:none;" d="M197.667 322.333C197.222 322.778 198.278 322.722 198.333 322.667C198.778 322.222 197.722 322.278 197.667 322.333z"/>
<path style="fill:#8d4f45; stroke:none;" d="M225.667 322.333C225.222 322.778 226.278 322.722 226.333 322.667C226.778 322.222 225.722 322.278 225.667 322.333z"/>
<path style="fill:#503f2d; stroke:none;" d="M233.667 322.333C233.222 322.778 234.278 322.722 234.333 322.667C234.778 322.222 233.722 322.278 233.667 322.333z"/>
<path style="fill:#694635; stroke:none;" d="M268.667 322.333C268.222 322.778 269.278 322.722 269.333 322.667C269.778 322.222 268.722 322.278 268.667 322.333z"/>
<path style="fill:#8d4f45; stroke:none;" d="M270.667 322.333C270.222 322.778 271.278 322.722 271.333 322.667C271.778 322.222 270.722 322.278 270.667 322.333M287 322L290 323L287 322M324.667 322.333C324.222 322.778 325.278 322.722 325.333 322.667C325.778 322.222 324.722 322.278 324.667 322.333z"/>
<path style="fill:#694635; stroke:none;" d="M331.667 322.333C331.222 322.778 332.278 322.722 332.333 322.667C332.778 322.222 331.722 322.278 331.667 322.333M126 323C136.054 326.757 151.275 324 162 324C151.946 320.243 136.725 323 126 323z"/>
<path style="fill:#462c1b; stroke:none;" d="M162 323L165 324L162 323z"/>
<path style="fill:#694635; stroke:none;" d="M191 323C192.764 323.703 194.083 323.884 196 324C194.236 323.297 192.917 323.116 191 323z"/>
<path style="fill:#2e231d; stroke:none;" d="M196.667 323.333C196.222 323.778 197.278 323.722 197.333 323.667C197.778 323.222 196.722 323.278 196.667 323.333z"/>
<path style="fill:#4f2f2a; stroke:none;" d="M227 323C228.764 323.703 230.084 323.884 232 324C230.236 323.297 228.917 323.116 227 323z"/>
<path style="fill:#462c1b; stroke:none;" d="M271.667 323.333C271.222 323.778 272.278 323.722 272.333 323.667C272.778 323.222 271.722 323.278 271.667 323.333z"/>
<path style="fill:#8d4f45; stroke:none;" d="M273 323C276.236 324.21 279.564 323.998 283 324C279.764 322.79 276.436 323.002 273 323z"/>
<path style="fill:#694635; stroke:none;" d="M283 323L286 324L283 323z"/>
<path style="fill:#2e231d; stroke:none;" d="M286.667 323.333C286.222 323.778 287.278 323.722 287.333 323.667C287.778 323.222 286.722 323.278 286.667 323.333z"/>
<path style="fill:#694635; stroke:none;" d="M325 323C326.764 323.703 328.083 323.884 330 324C328.236 323.297 326.917 323.116 325 323z"/>
<path style="fill:#2e231d; stroke:none;" d="M330.667 323.333C330.222 323.778 331.278 323.722 331.333 323.667C331.778 323.222 330.722 323.278 330.667 323.333M275 324C277.947 325.103 280.864 324.994 284 325C281.053 323.897 278.136 324.006 275 324z"/>
</svg>
